<?xml version="1.0" standalone="no"?>
<!DOCTYPE svg PUBLIC "-//W3C//DTD SVG 20010904//EN"
 "http://www.w3.org/TR/2001/REC-SVG-20010904/DTD/svg10.dtd">
<svg version="1.0" xmlns="http://www.w3.org/2000/svg"
 width="640.000000pt" height="640.000000pt" viewBox="0 0 640.000000 640.000000"
 preserveAspectRatio="xMidYMid meet">
<metadata>
Created by potrace 1.14, written by Peter Selinger 2001-2017
</metadata>
<g transform="translate(0.000000,640.000000) scale(0.100000,-0.100000)"
fill="#000000" stroke="none">
<path d="M1805 4818 c-2 -7 -5 -26 -7 -43 -3 -27 -7 -31 -43 -35 l-40 -5 -5
-215 -5 -215 -33 -1 c-40 0 -50 -10 -54 -54 -2 -29 -8 -36 -28 -39 -14 -1 -28
-8 -32 -15 -4 -6 -8 -448 -8 -982 0 -1027 -2 -987 45 -996 15 -2 21 -12 23
-38 4 -44 14 -54 54 -54 l33 -1 5 -305 5 -305 40 -5 c34 -4 40 -9 43 -30 8
-76 -6 -70 180 -70 181 0 192 3 192 52 0 30 23 48 64 48 14 0 27 6 27 13 1 6
3 19 4 27 1 8 3 23 4 33 1 15 12 17 86 17 l84 0 3 123 3 122 45 0 45 0 5 -75
5 -75 40 -5 c38 -5 40 -7 45 -45 l5 -40 122 -3 c135 -3 125 -8 135 63 2 15 12
21 38 23 41 4 50 15 50 60 l0 32 78 0 c42 0 83 4 90 9 9 5 12 29 11 75 -1 36
0 68 2 70 7 8 349 10 356 3 4 -4 5 -52 4 -107 -3 -131 0 -140 49 -140 40 0 57
-20 45 -52 -4 -9 0 -22 8 -29 11 -11 47 -13 183 -9 l169 5 3 30 c5 40 17 53
55 57 27 3 33 8 43 43 9 34 15 41 40 43 42 5 48 15 46 79 -3 70 6 86 44 81
l29 -3 5 -210 5 -210 35 -3 c46 -5 59 -17 58 -54 -1 -16 5 -34 13 -39 16 -10
308 -12 333 -3 11 4 16 19 16 45 0 40 2 42 65 51 15 2 21 12 23 38 2 19 9 38
14 42 6 3 42 7 80 7 38 0 73 3 79 6 5 4 9 143 9 344 0 366 -1 356 55 363 21 2
31 9 33 23 9 60 11 64 50 67 l37 3 3 389 c1 267 6 393 13 403 9 9 44 13 134
13 134 0 135 0 135 61 0 26 4 29 30 29 39 0 41 11 38 200 l-3 155 -32 3 c-34
3 -36 6 -37 57 l-1 30 -500 5 -500 5 -3 43 c-3 40 -4 42 -36 42 -38 0 -60 21
-61 58 0 34 -34 43 -150 40 l-90 -3 -6 38 c-7 46 -10 49 -56 56 -35 6 -38 9
-41 44 -4 45 -7 46 -162 50 l-115 2 -3 123 c-3 133 -1 129 -64 123 -17 -2 -24
14 -30 69 -2 20 -9 25 -33 26 -53 1 -55 5 -55 144 l0 129 -37 3 c-38 3 -41 6
-59 76 -5 18 -237 17 -253 -1 -6 -8 -8 -17 -5 -20 4 -4 -1 -18 -10 -32 -16
-25 -21 -26 -94 -23 -68 3 -77 5 -80 23 -1 11 -5 30 -8 43 l-4 22 -350 0 -350
0 0 -33 c0 -48 -15 -57 -91 -57 -85 0 -99 6 -99 39 0 15 -5 32 -12 39 -17 17
-257 17 -263 0z m1175 -254 l0 -84 48 -2 c73 -3 112 -1 120 6 4 4 9 42 12 84
l5 77 84 3 c98 3 103 0 96 -73 -2 -27 -1 -97 3 -155 l7 -105 80 -5 80 -5 6
-180 c3 -99 6 -181 7 -182 1 -2 81 -3 177 -3 201 0 195 3 188 -94 -4 -46 -2
-65 9 -74 10 -7 69 -12 174 -14 l159 -3 3 -87 3 -88 534 0 c293 0 540 -3 549
-6 21 -8 23 -156 3 -173 -8 -6 -77 -12 -178 -13 l-164 -3 -5 -445 -5 -445 -80
-3 c-43 -2 -85 -8 -92 -14 -10 -8 -13 -84 -13 -349 0 -384 6 -359 -85 -353
-93 7 -94 6 -97 -94 l-3 -87 -70 -3 c-38 -2 -80 0 -92 3 l-23 5 0 255 0 255
-22 5 c-13 3 -88 4 -168 3 l-145 -3 -5 -85 -5 -85 -80 -3 c-43 -2 -84 -7 -91
-12 -6 -6 -11 -38 -11 -78 l1 -67 -95 0 -94 0 -5 165 -5 165 -355 0 -355 0 -5
-85 -5 -85 -77 -3 -78 -3 0 -74 c0 -62 -3 -75 -18 -79 -24 -8 -162 -10 -169
-2 -3 3 -5 75 -4 159 2 123 -1 156 -12 166 -10 8 -62 11 -178 9 l-164 -3 -5
-165 -5 -165 -70 -3 c-119 -4 -114 1 -117 -100 l-3 -87 -78 -3 c-50 -2 -84 1
-93 9 -12 9 -14 71 -14 348 0 237 -3 340 -11 348 -8 8 -35 10 -81 6 -54 -5
-72 -3 -79 8 -13 21 -12 1796 2 1805 6 3 45 7 87 8 l77 1 5 260 5 260 90 0 90
0 3 -82 c3 -94 4 -95 107 -88 33 2 66 4 74 5 10 0 12 10 7 42 -4 22 -4 61 0
84 l6 44 347 2 c190 2 349 2 354 0 4 -2 7 -41 7 -88z"/>
<path d="M2092 4108 c-12 -12 -17 -124 -6 -152 5 -13 23 -16 90 -16 46 0 84 3
85 8 1 4 3 40 5 80 4 70 3 73 -22 82 -36 14 -138 12 -152 -2z"/>
<path d="M2646 4107 c-14 -10 -16 -25 -14 -87 l3 -75 79 -3 c44 -2 83 1 87 5
5 5 9 41 10 82 1 53 -2 75 -12 82 -21 13 -133 11 -153 -4z"/>
<path d="M2268 3573 l-3 -178 -85 -3 c-52 -2 -87 -8 -92 -15 -4 -7 -8 -45 -8
-84 0 -67 2 -73 23 -78 12 -3 175 -4 362 -3 l340 3 3 73 c2 46 -2 79 -9 88 -9
11 -47 14 -179 14 -192 0 -180 -6 -180 95 0 96 -1 95 96 95 97 0 97 1 92 105
l-3 60 -177 3 -178 2 -2 -177z"/>
<path d="M1905 3560 c-15 -16 -17 -31 -13 -84 3 -35 9 -69 12 -75 9 -14 131
-15 157 -1 16 9 19 22 19 86 0 71 -1 75 -26 84 -46 18 -129 12 -149 -10z"/>
<path d="M2827 3573 c-4 -3 -7 -46 -7 -95 l0 -88 74 0 c68 0 74 2 80 23 10 39
6 143 -6 155 -13 13 -130 17 -141 5z"/>
</g>
</svg>
